<svg preserveAspectRatio="none" width="100%" height="100%" overflow="visible" style="display: block;" viewBox="0 0 18.6667 15.3333" fill="none" xmlns="http://www.w3.org/2000/svg">
<path id="Vector" d="M4.33334 6.83333V10.1667M14.3333 5.16667V8.5M13.5 1C15.5406 1 16.6443 1.3123 17.1934 1.55454C17.2666 1.58679 17.3031 1.60292 17.4087 1.70364C17.4719 1.76402 17.5874 1.94116 17.6171 2.02341C17.6667 2.16062 17.6667 2.23562 17.6667 2.38562V11.3426C17.6667 12.0999 17.6667 12.4786 17.5531 12.6732C17.4376 12.8712 17.3262 12.9632 17.11 13.0393C16.8974 13.1141 16.4683 13.0317 15.6101 12.8668C15.0095 12.7514 14.2971 12.6667 13.5 12.6667C11 12.6667 8.50001 14.3333 5.16667 14.3333C3.12608 14.3333 2.0224 14.021 1.47324 13.7788C1.40011 13.7465 1.36354 13.7304 1.25801 13.6297C1.19475 13.5693 1.07927 13.3922 1.04957 13.3099C1.00001 13.1727 1.00001 13.0977 1.00001 12.9477L1.00001 3.99071C1.00001 3.2334 1.00001 2.85475 1.11357 2.66012C1.22909 2.46214 1.3405 2.3701 1.55672 2.29401C1.76929 2.21921 2.19837 2.30165 3.05653 2.46654C3.65719 2.58195 4.36957 2.66667 5.16667 2.66667C7.66667 2.66667 10.1667 1 13.5 1ZM11.4167 7.66667C11.4167 8.81726 10.4839 9.75 9.33334 9.75C8.18275 9.75 7.25001 8.81726 7.25001 7.66667C7.25001 6.51607 8.18275 5.58333 9.33334 5.58333C10.4839 5.58333 11.4167 6.51607 11.4167 7.66667Z" stroke="var(--stroke-0, #0A0A0A)" stroke-width="2" stroke-linecap="round" stroke-linejoin="round"/>
</svg>
